<svg id="Layer_1" data-name="Layer 1" xmlns="http://www.w3.org/2000/svg" viewBox="0 0 100 100">
  <defs>
  </defs>
  <title>esignature</title>
  <circle id="Background" fill="#112338" cx="50" cy="50" r="50"/>
  <path fill="#fff" d="M61.61,56.44A3.5,3.5,0,0,1,58,56.32a1.26,1.26,0,0,0-1.51.2l-1.89-1.76a1.26,1.26,0,0,0-2.33-.63,27.37,27.37,0,0,1-2.74,4.12c-1,1.09-2.09,3.25-2.89,1.44-.66-1.49.46-7.23,1-8.92s-1.83-2.12-2.41-.66a20,20,0,0,1-6.05,8.19c-1.24,1,.54,2.79,1.77,1.77a22.73,22.73,0,0,0,2.93-2.9c-.16,2.23,0,4.37.78,5.69a1.25,1.25,0,0,0,1.08.62c3-.09,5.35-2.86,7.09-5.51.89,1.79,2.52,2.52,4.64,1,1.58.82,2.94.57,4.81-.08C63.78,58.32,63.13,55.9,61.61,56.44Z"/>
  <path fill="#fff" d="M55,18.16H31.06V78H70.94V34.11ZM67,74H35V22.14H53v14H67Z"/>
  <line fill="none" style="stroke:#fff;stroke-miterlimit:10;stroke-width:2px;" x1="38.69" y1="67.08" x2="62.94" y2="67.08"/>
</svg>
