<?xml version="1.0" encoding="UTF-8"?>
<svg width="100px" height="100px" viewBox="0 0 100 100" version="1.1" xmlns="http://www.w3.org/2000/svg" xmlns:xlink="http://www.w3.org/1999/xlink">
    <!-- Generator: Sketch 42 (36781) - http://www.bohemiancoding.com/sketch -->
    <title>Collaboration</title>
    <desc>Created with Sketch.</desc>
    <defs></defs>
    <g id="Categories" stroke="none" stroke-width="1" fill="none" fill-rule="evenodd">
        <g id="Collaboration">
            <circle id="Background" fill="#1BBAF7" cx="50" cy="50" r="50"></circle>
            <g id="collaboration" transform="translate(21.663755, 21.663755)" fill="#FFFFFF">
                <path d="M48.1922633,6.39615637 C44.2417496,2.44382305 38.7827257,0 32.7541436,0 C26.7237418,0 21.2647179,2.44382305 17.3160239,6.39615637 C13.3636906,10.3484897 10.9180479,15.805694 10.9180479,21.8360957 C10.9180479,23.7376557 11.1873597,25.5737074 11.6422784,27.3315132 C11.403901,27.3151361 11.1637039,27.2951197 10.9180479,27.2951197 C7.90466665,27.2951197 5.17515469,28.517941 3.19898802,30.4941077 C1.22282136,32.4684547 0,35.1979666 0,38.2131675 C0,41.4048769 1.22282136,44.2963399 3.19898802,46.387146 L10.9180479,54.5902393 L10.9180479,49.1312154 C13.9314291,49.1312154 16.660941,47.908394 18.6371077,45.9322274 C20.083749,44.4874057 21.1173242,42.6349769 21.5740626,40.5678265 C24.8458376,42.5257983 28.663515,43.6721915 32.7541436,43.6721915 L32.7541436,54.5902393 L48.1922633,38.1840527 C52.1445966,34.0006207 54.5902393,28.2195144 54.5902393,21.8360957 C54.5902393,15.805694 52.1445966,10.3484897 48.1922633,6.39615637 L48.1922633,6.39615637 Z M45.5409973,35.6892788 L36.3934929,45.4117986 L36.3934929,43.6721915 L36.3934929,40.0328422 L32.7541436,40.0328422 C28.6780724,40.0328422 24.8185425,38.6862829 21.6468496,36.2297222 C21.2374228,34.0115388 20.1692738,32.0244541 18.6371077,30.4941077 C17.8164344,29.6734344 16.8592856,28.9928761 15.8129727,28.4651705 C14.9977584,26.3798233 14.5573972,24.1434432 14.5573972,21.8360957 C14.5573972,16.9757448 16.4516785,12.4065417 19.8890439,8.96917632 C23.3245896,5.53181092 27.8937926,3.63934929 32.7541436,3.63934929 C37.6144946,3.63934929 42.1836976,5.53181092 45.6192433,8.970996 C49.0566087,12.4065417 50.95089,16.9757448 50.95089,21.8360957 C50.95089,27.0785784 49.0311333,31.9953393 45.5409973,35.6892788 L45.5409973,35.6892788 Z" id="Fill-1"></path>
                <path d="M34.6841997,19.9060396 C35.7501469,20.9719868 35.7501469,22.7002046 34.6841997,23.7661518 C33.6182525,24.832099 31.8900347,24.832099 30.8240875,23.7661518 C29.7581403,22.7002046 29.7581403,20.9719868 30.8240875,19.9060396 C31.8900347,18.8400924 33.6182525,18.8400924 34.6841997,19.9060396" id="Fill-3"></path>
                <path d="M43.7825729,19.9060396 C44.8485201,20.9719868 44.8485201,22.7002046 43.7825729,23.7661518 C42.7166257,24.832099 40.9884079,24.832099 39.9224607,23.7661518 C38.8565135,22.7002046 38.8565135,20.9719868 39.9224607,19.9060396 C40.9884079,18.8400924 42.7166257,18.8400924 43.7825729,19.9060396" id="Fill-4"></path>
                <path d="M25.5858265,19.9060396 C26.6517737,20.9719868 26.6517737,22.7002046 25.5858265,23.7661518 C24.5198793,24.832099 22.7916615,24.832099 21.7257143,23.7661518 C20.6597671,22.7002046 20.6597671,20.9719868 21.7257143,19.9060396 C22.7916615,18.8400924 24.5198793,18.8400924 25.5858265,19.9060396" id="Fill-5"></path>
            </g>
        </g>
    </g>
</svg>