<svg data-name="Layer 1" xmlns="http://www.w3.org/2000/svg" viewBox="0 0 100 100">
  <title>HTTP</title>
  <circle fill="#69A834" cx="50" cy="50" r="50"></circle>
  <path
    fill="#fff"
    d="M30.32 30.32a27.83 27.83 0 1 0 39.36 0 27.83 27.83 0 0 0-39.36 0zM62.86 49H51V26.2A30.19 30.19 0 0 1 62.86 49zm-25.72 2H49v22.8A30.19 30.19 0 0 1 37.14 51zM49 26.2V49H37.13a30 30 0 0 1 9-20.29 33.38 33.38 0 0 1 2.87-2.5zm2 47.6V51h11.87a30 30 0 0 1-9 20.29 33.44 33.44 0 0 1-2.87 2.5zm-5.51-47.21c-.26.25-.54.47-.79.73A32 32 0 0 0 35.14 49H26.2a23.76 23.76 0 0 1 19.29-22.41zM26.2 51h8.92a32.42 32.42 0 0 0 10.35 22.41A23.75 23.75 0 0 1 26.2 51zm28.31 22.41c.26-.25.54-.48.8-.73A32 32 0 0 0 64.86 51h8.94a23.76 23.76 0 0 1-19.29 22.41zM73.8 49h-8.93a32.42 32.42 0 0 0-10.34-22.41A23.75 23.75 0 0 1 73.8 49z"></path>
</svg>