<?xml version="1.0" encoding="UTF-8"?>
<svg width="100px" height="100px" viewBox="0 0 100 100" version="1.1" xmlns="http://www.w3.org/2000/svg" xmlns:xlink="http://www.w3.org/1999/xlink">
    <!-- Generator: Sketch 39.1 (31720) - http://www.bohemiancoding.com/sketch -->
    <title>Hubspot</title>
    <desc>Created with Sketch.</desc>
    <defs></defs>
    <g id="Page-1" stroke="none" stroke-width="1" fill="none" fill-rule="evenodd">
        <g id="Hubspot">
            <g id="Layer_2">
                <g id="Layer_1-2">
                    <g id="Layer_2-2">
                        <g id="Layer_1-2-2">
                            <g id="Categories">
                                <g id="CRM">
                                    <circle id="Background" fill="#F7761F" cx="50" cy="50" r="50"></circle>
                                    <path d="M52.6,41.17 L60.91,41.17 C61.3308591,44.5481785 64.2520881,47.0520198 67.6548872,46.9511719 C71.0576864,46.8503241 73.8255071,44.177878 74.0455669,40.7807047 C74.2656267,37.3835315 71.8657181,34.3763337 68.5043674,33.8373223 C65.1430166,33.2983109 61.9231719,35.4043498 61.07,38.7 L52.6,38.7 C51.7683812,32.244819 46.0697732,27.5429471 39.574141,27.9524773 C33.0785089,28.3620075 28.0155551,33.7423635 28.0012584,40.250877 C27.9869618,46.7593905 33.0262297,52.1619372 39.52,52.6 L39.52,61.08 C36.2425135,61.933315 34.1507047,65.1382116 34.6888189,68.4819367 C35.2269331,71.8256618 38.2186272,74.2124573 41.5983491,73.9944108 C44.9780709,73.7763642 47.6382664,71.0249306 47.7422595,67.6397792 C47.8462527,64.2546279 45.3599644,61.3450923 42,60.92 L42,52.6 C44.2743639,52.3016781 46.4155744,51.3577408 48.17,49.88 L58,59.68 C57.2423763,60.7642979 56.8405055,62.0572735 56.85,63.38 C56.85,67.0140337 59.7959663,69.96 63.43,69.96 C67.0640337,69.96 70.01,67.0140337 70.01,63.38 C70.01,59.7459663 67.0640337,56.8 63.43,56.8 C62.0847474,56.7946408 60.772225,57.214648 59.68,58 L49.89,48.21 C51.508355,46.2196706 52.4598967,43.77085 52.61,41.21 L52.6,41.17 Z M30.46,40.35 C30.46,34.8989495 34.8789495,30.48 40.33,30.48 C45.7810505,30.48 50.2,34.8989495 50.2,40.35 C50.2,45.8010505 45.7810505,50.22 40.33,50.22 L40.33,50.22 C34.8857874,50.2035272 30.4764728,45.7942126 30.46,40.35 L30.46,40.35 Z" id="crm-2" stroke="#FFFFFF" stroke-width="1.31" fill="#FFFFFF"></path>
                                </g>
                            </g>
                        </g>
                    </g>
                </g>
            </g>
        </g>
    </g>
</svg>