<?xml version="1.0" encoding="UTF-8"?>
<svg width="100px" height="100px" viewBox="0 0 100 100" version="1.1" xmlns="http://www.w3.org/2000/svg" xmlns:xlink="http://www.w3.org/1999/xlink">
    <!-- Generator: Sketch 42 (36781) - http://www.bohemiancoding.com/sketch -->
    <title>IBM_Message_Hub</title>
    <desc>Created with Sketch.</desc>
    <defs></defs>
    <g id="Categories" stroke="none" stroke-width="1" fill="none" fill-rule="evenodd">
        <g id="IBM_Message_Hub">
            <circle id="Oval" fill="#1D3649" cx="50" cy="50" r="50"></circle>
            <path d="M74.7387264,52.7685578 L74.7387264,52.6881059 C74.7387264,42.9283626 66.9511715,34.9807663 57.205204,34.300222 L57.205204,30.3264238 C57.6451762,30.2200474 58.0742108,30.0725653 58.486667,29.8859165 C61.5434765,28.4430572 62.6247521,24.9968127 61.22344,22.0280043 C59.7878694,19.0093324 56.1880851,17.7173753 53.1645785,19.1356912 C50.11172,20.5798694 49.0383466,24.2147144 50.4396587,27.180885 C51.1963483,28.8081474 52.6496944,30.0035162 54.3907266,30.4306157 L54.3077542,30.4306157 L54.3077542,34.312092 C50.1943326,34.6073009 46.2945915,36.2593808 43.2184235,39.0099576 L38.0188181,33.7845383 C39.6229517,31.0254325 38.8208849,27.3655288 36.0274799,25.6074561 C33.1721748,23.8045414 29.5859222,24.8161256 27.8369161,27.5950146 C26.08791,30.3739037 26.9887535,34.0852439 29.8440586,35.8881586 C31.7417797,37.1270901 34.192947,37.1193174 36.0827949,35.8683754 L41.2731811,41.1518256 C38.6797736,44.2606976 37.1929185,48.1452555 37.0468554,52.1935243 L31.6760371,52.1935243 C31.5821398,51.7968934 31.4498103,51.4103867 31.2809303,51.0395006 C29.8809352,48.0706922 26.2762443,46.6594861 23.2181177,48.1036643 C20.1599911,49.5478425 19.0932028,53.1035544 20.4945149,56.0736817 C21.895827,59.0438089 25.4992009,60.3112567 28.5573275,58.8670785 C30.2878952,58.052008 31.3836581,56.6777306 31.7511074,54.9631811 L37.1509002,54.9631811 C38.1979332,64.1953707 46.1474819,71.2922867 55.8144281,71.3278966 L55.8144281,80.2356406 L68.4051645,67.3527795 C73.724619,62.0258062 74.2843536,57.3490427 74.3409855,56.5972787 C74.60451,55.352409 74.7369366,54.0832956 74.7360923,52.8107621 C74.7387264,52.7975733 74.7387264,52.7764711 74.7387264,52.7685578 Z M25.9377694,56.4851735 C24.281123,56.4506655 22.9561364,55.0959196 22.9561364,53.4365727 C22.9561364,51.7772257 24.281123,50.4224798 25.9377694,50.3879718 C27.5944159,50.4224798 28.9194025,51.7772257 28.9194025,53.4365727 C28.9194025,55.0959196 27.5944159,56.4506655 25.9377694,56.4851735 L25.9377694,56.4851735 Z M56.0119815,63.7917921 C50.0037242,63.7917921 45.1320574,58.8248742 45.1109851,52.6894247 C45.1320574,46.5539753 50.0037242,41.5870573 56.0119815,41.5870573 C62.0202387,41.5870573 66.8919055,46.5539753 66.9129779,52.6894247 C66.8984906,58.8248742 62.0255068,63.7917921 56.0119815,63.7917921 Z M52.902491,24.5101444 C52.902491,22.8603192 54.2380508,21.5228717 55.8855473,21.5228717 C57.5330438,21.5228717 58.8686036,22.8603192 58.8686036,24.5101444 C58.8686036,26.1599696 57.5330438,27.4974172 55.8855473,27.4974172 C54.2380508,27.4974172 52.902491,26.1599696 52.902491,24.5101444 L52.902491,24.5101444 Z M32.8600404,33.890049 C31.6230281,33.9152366 30.4937845,33.1883472 30.002993,32.0509795 C29.5122016,30.9136118 29.7574548,29.5919283 30.623497,28.7070486 C31.4895392,27.8221689 32.8041602,27.550049 33.9495594,28.0185705 C35.0949585,28.487092 35.8433762,29.6030907 35.8430967,30.8421076 C35.851171,31.6424387 35.5414122,32.4131982 34.981972,32.984807 C34.4225317,33.5564157 33.6592428,33.8820442 32.8600404,33.890049 L32.8600404,33.890049 Z" id="Shape" fill="#FFFFFF" fill-rule="nonzero"></path>
            <path d="M74.7334583,52.2489174 L66.8721502,52.2489174 C66.8802156,52.292434 66.8846211,52.3365516 66.8853204,52.3808058 C66.8853204,52.5245642 66.8945395,52.6445827 66.8945395,52.7857033 C66.8734672,58.9211527 62.0018004,63.873563 55.9935431,63.873563 C49.9852858,63.873563 45.1136191,58.8987317 45.0925467,52.7646011 C45.0925467,52.5548986 45.0991319,52.4005891 45.1109851,52.1935243 L45.1109851,52.2436419 L31.6470626,52.2436419 C31.5531251,51.8500052 31.4207869,51.4665655 31.2519558,51.0988504 C29.8519607,48.130042 26.2472698,46.7227925 23.1891432,48.1669707 C20.1310166,49.611149 19.0694964,53.1721364 20.4694914,56.1435825 C21.8694865,59.1150287 25.4741775,60.3732442 28.532304,58.9303849 C30.2641888,58.1100389 31.3586346,56.7331238 31.726084,55.0185743 L37.1258768,55.0185743 C38.1729098,64.2507639 46.1224584,71.3569121 55.7894046,71.391203 L55.7894046,80.3029037 L68.3801411,67.4530147 C75.357727,60.63834 74.7334583,53.5678016 74.7334583,52.2489174 Z M25.914063,56.5577122 C24.2574166,56.5232042 22.93243,55.1684582 22.93243,53.5091113 C22.93243,51.8497643 24.2574166,50.4950184 25.914063,50.4605104 C27.5707095,50.4950184 28.8956961,51.8497643 28.8956961,53.5091113 C28.8956961,55.1684582 27.5707095,56.5232042 25.914063,56.5577122 L25.914063,56.5577122 Z" id="Shape" fill="#FFFFFF" fill-rule="nonzero"></path>
        </g>
    </g>
</svg>