<svg id="Layer_1" data-name="Layer 1" xmlns="http://www.w3.org/2000/svg" viewBox="0 0 100 100">
  <defs>
  </defs>
  <title>finance</title>
  <circle id="Background" fill="#2CA01C"  cx="50" cy="50" r="50"/>
  <path fill="#FFFFFF" d="M46.24,53.82a3.46,3.46,0,0,0,2.94,3.63V51.71a6.3,6.3,0,0,0-.88-.25c-2.75-.71-5.5-1.81-5.5-5.47s3.08-5.66,6.37-5.88V38H50.8v2.12c3.27.36,6,2,6.18,5.85h-3.9a2.51,2.51,0,0,0-2.28-2.64v4.86l1.4.36c5.38,1.48,5.47,4.53,5.47,6.37,0,1.57-1.4,5.38-6.87,5.74V63H49.18V60.67c-4.09-.3-6.43-2.53-6.84-6.84Zm2.94-10.49a2.28,2.28,0,0,0-2.47,2.28c0,1.21.71,1.79,2.47,2.2ZM50.8,57.45c1.35-.14,3-.93,3-2.69,0-1.43-.8-2-3-2.58Z"/>
  <path fill="#FFFFFF" d="M80.19,32.09H16.81V68.91H83.19V32.09Zm0,26.38v7.43H19.81V58.48a9,9,0,0,0,0-17V35.09H80.19v6.43a9,9,0,0,0,0,17Z"/>
</svg>
