<svg width="100" height="100" viewBox="0 0 100 100" xmlns="http://www.w3.org/2000/svg"><title>Twitter-100</title><g fill="none" fill-rule="evenodd"><ellipse fill="#50ABF1" cx="50" cy="50" rx="50" ry="50"/><g fill="#FFF"><path d="M66.94 30.075a23.57 23.57 0 0 0-16.722-6.928 23.563 23.563 0 0 0-16.722 6.928 23.577 23.577 0 0 0-6.93 16.724c0 6.533 2.649 12.444 6.93 16.725a23.563 23.563 0 0 0 16.722 6.928V82.28l16.723-17.772c4.281-4.531 6.93-10.793 6.93-17.708 0-6.532-2.649-12.443-6.93-16.724zm-2.871 31.73L54.16 72.337V66.51h-3.942a19.566 19.566 0 0 1-13.935-5.775 19.575 19.575 0 0 1-5.775-13.936 19.583 19.583 0 0 1 5.775-13.937 19.573 19.573 0 0 1 13.935-5.773c5.265 0 10.214 2.05 13.936 5.775a19.575 19.575 0 0 1 5.775 13.935c0 5.68-2.08 11.005-5.86 15.006z"/><path d="M52.309 44.709a2.957 2.957 0 1 1-4.181 4.181 2.957 2.957 0 0 1 4.181-4.181M62.164 44.709a2.957 2.957 0 1 1-4.18 4.181 2.957 2.957 0 0 1 4.18-4.181M42.454 44.709a2.957 2.957 0 1 1-4.182 4.181 2.957 2.957 0 0 1 4.182-4.181"/></g></g></svg>