<?xml version="1.0" encoding="UTF-8"?>
<svg width="100px" height="100px" viewBox="0 0 100 100" version="1.1" xmlns="http://www.w3.org/2000/svg" xmlns:xlink="http://www.w3.org/1999/xlink">
    <!-- Generator: Sketch 42 (36781) - http://www.bohemiancoding.com/sketch -->
    <title>Social Networking</title>
    <desc>Created with Sketch.</desc>
    <defs></defs>
    <g id="Categories" stroke="none" stroke-width="1" fill="none" fill-rule="evenodd">
        <g id="Social-Networking">
            <ellipse id="Background" fill="#0072C6" cx="50" cy="50" rx="50" ry="50"></ellipse>
            <g id="social_networking" transform="translate(26.565502, 23.146567)" fill="#FFFFFF">
                <path d="M40.3753952,6.92831059 C36.0962025,2.64714683 30.1829929,0 23.6528384,0 C17.1207129,0 11.2075033,2.64714683 6.93028166,6.92831059 C2.6491179,11.2094743 0,17.1207129 0,23.6528384 C0,30.184964 2.6491179,36.0962025 6.93028166,40.3773663 C11.2075033,44.65853 17.1207129,47.3056769 23.6528384,47.3056769 L23.6528384,59.1320961 L40.3753952,41.3609301 C44.656559,36.8294405 47.3056769,30.5673515 47.3056769,23.6528384 C47.3056769,17.1207129 44.656559,11.2094743 40.3753952,6.92831059 L40.3753952,6.92831059 Z M37.5035464,38.6585933 L27.5949782,49.1900177 L27.5949782,47.3056769 L27.5949782,43.3635371 L23.6528384,43.3635371 C18.3881108,43.3635371 13.4387544,41.3136245 9.71737445,37.5883024 C5.99402347,33.8669225 3.94213974,28.917566 3.94213974,23.6528384 C3.94213974,18.3881108 5.99402347,13.4387544 9.71737445,9.71540338 C13.4387544,5.9920524 18.3881108,3.94213974 23.6528384,3.94213974 C28.917566,3.94213974 33.8669225,5.9920524 37.5883024,9.71737445 C41.3116534,13.4387544 43.3635371,18.3881108 43.3635371,23.6528384 C43.3635371,29.3314907 41.2840584,34.6573215 37.5035464,38.6585933 L37.5035464,38.6585933 Z" id="Fill-1"></path>
                <path d="M25.7434734,21.5622035 C26.8981064,22.7168365 26.8981064,24.5888404 25.7434734,25.7434734 C24.5888404,26.8981064 22.7168365,26.8981064 21.5622035,25.7434734 C20.4075704,24.5888404 20.4075704,22.7168365 21.5622035,21.5622035 C22.7168365,20.4075704 24.5888404,20.4075704 25.7434734,21.5622035" id="Fill-3"></path>
                <path d="M35.5988227,21.5622035 C36.7534558,22.7168365 36.7534558,24.5888404 35.5988227,25.7434734 C34.4441897,26.8981064 32.5721858,26.8981064 31.4175528,25.7434734 C30.2629198,24.5888404 30.2629198,22.7168365 31.4175528,21.5622035 C32.5721858,20.4075704 34.4441897,20.4075704 35.5988227,21.5622035" id="Fill-4"></path>
                <path d="M15.8881241,21.5622035 C17.0427571,22.7168365 17.0427571,24.5888404 15.8881241,25.7434734 C14.733491,26.8981064 12.8614871,26.8981064 11.7068541,25.7434734 C10.552227,24.5888404 10.552227,22.7168365 11.7068541,21.5622035 C12.8614871,20.4075704 14.733491,20.4075704 15.8881241,21.5622035" id="Fill-5"></path>
            </g>
        </g>
    </g>
</svg>