<svg xmlns="http://www.w3.org/2000/svg" viewBox="0 0 100 100">
  <defs></defs>
  <title>Asset 1</title>
  <g id="Layer_2" data-name="Layer 2">
    <g id="Layer_1-2" data-name="Layer 1">
      <g id="Categories">
        <g id="CRM"><circle id="Background" fill="#f0483e" cx="50" cy="50" r="50"/><path
          id="crm-2"
          data-name="crm"
          fill="#fff"
          stroke="#fff"
          stroke-width="1.31px"
          d="M52.6,41.17h8.31a6.6,6.6,0,1,0,.16-2.47H52.6A12.35,12.35,0,1,0,39.52,52.6v8.48A6.57,6.57,0,1,0,42,60.92V52.6a12,12,0,0,0,6.17-2.72L58,59.68a6.38,6.38,0,0,0-1.15,3.7,6.58,6.58,0,1,0,6.58-6.58A6.38,6.38,0,0,0,59.68,58l-9.79-9.79a12.23,12.23,0,0,0,2.72-7Zm-22.14-.82a9.87,9.87,0,1,1,9.87,9.87,9.9,9.9,0,0,1-9.87-9.87Z"/></g>
      </g>
    </g>
  </g>
</svg>
