<?xml version="1.0" encoding="UTF-8"?>
<svg width="100px" height="100px" viewBox="0 0 100 100" version="1.1" xmlns="http://www.w3.org/2000/svg" xmlns:xlink="http://www.w3.org/1999/xlink">
    <!-- Generator: Sketch 42 (36781) - http://www.bohemiancoding.com/sketch -->
    <title>Help Desk</title>
    <desc>Created with Sketch.</desc>
    <defs></defs>
    <g id="Categories" stroke="none" stroke-width="1" fill="none" fill-rule="evenodd">
        <g id="Help-Desk">
            <ellipse id="Background" fill="#1A5182" cx="50" cy="50" rx="50" ry="50"></ellipse>
            <path d="M50.2431333,23.9999887 C37.2020222,23.9999887 26.5923556,34.7448104 26.5923556,47.9520503 C26.5923556,48.6085301 26.6190222,49.2639972 26.6716889,49.9165386 C25.6475778,50.8250779 25.0000222,52.1581798 25.0000222,53.6453306 C25.0000222,56.3825386 27.1911333,58.601562 29.8939111,58.601562 C32.5968,58.601562 34.7879111,56.3825386 34.7879111,53.6453306 C34.7879111,51.3146809 33.1990222,49.3607701 31.0586889,48.8314452 C31.0456889,48.5386512 31.0368,48.2456321 31.0368,47.9520503 C31.0368,37.2266958 39.6528,28.5010503 50.2431333,28.5010503 C60.8334667,28.5010503 69.4493556,37.2266958 69.4493556,47.9520503 L69.4493556,49.1284028 L64.5822444,49.1284028 L64.5822444,63.9538868 L68.8939111,63.9538868 C68.6114667,64.5869611 67.9394667,65.7564495 66.4751333,66.9727488 C63.6213556,69.3432329 59.2382444,70.380165 55.0763556,70.7814346 L55.0763556,69.1957106 L45.4096889,69.1957106 L45.4096889,76.9734325 L55.0763556,76.9734325 L55.0763556,75.2987 C58.0613556,75.0350503 60.7480222,74.5177658 63.0980222,73.7483093 C65.9804667,72.8044367 68.3739111,71.4819123 70.2120222,69.8175323 C73.5633556,66.7826915 73.8904667,63.6731331 73.8929111,63.6425259 L73.8938,63.6294728 L73.8938,47.9520503 C73.8938,34.7448104 63.2841333,23.9999887 50.2431333,23.9999887" id="help_desk" fill="#FFFFFF"></path>
        </g>
    </g>
</svg>