<?xml version="1.0" encoding="UTF-8" standalone="no"?>
<svg width="100px" height="100px" viewBox="0 0 100 100" version="1.1" xmlns="http://www.w3.org/2000/svg" xmlns:xlink="http://www.w3.org/1999/xlink">
    <!-- Generator: Sketch 40.2 (33826) - http://www.bohemiancoding.com/sketch -->
    <title>Page 1</title>
    <desc>Created with Sketch.</desc>
    <defs></defs>
    <g id="product-screens" stroke="none" stroke-width="1" fill="none" fill-rule="evenodd">
        <g id="Page-1">
            <path d="M50,0 C77.614,0 100,22.386 100,50 C100,77.614 77.614,100 50,100 C22.386,100 0,77.614 0,50 C0,22.386 22.386,0 50,0" id="Fill-1" fill="#F9681F"></path>
            <g id="Group-2" transform="translate(17.000000, 17.000000)" fill="#FFFFFF">
                <path d="M21.4415408,54.9639634 L27.0840761,60.6064986 L60.6064986,27.0840761 L54.9658225,21.4434 C53.8084986,22.1312873 52.469907,22.4733718 51.0932028,22.4891746 C49.0750901,22.4798789 47.1759634,21.6869493 45.7444141,20.2554 C43.2419915,17.7520479 42.8432028,13.9314845 44.5592028,11.0349211 L38.915738,5.39238592 L5.39331549,38.9148085 L11.0358507,44.5582732 C13.9324141,42.8432028 17.7520479,43.241062 20.2554,45.7444141 C22.7587521,48.2468366 23.1566113,52.0674 21.4415408,54.9639634 L21.4415408,54.9639634 Z M27.0840761,65.8651183 L16.3483859,55.1294282 L17.6628085,53.8150056 C19.1529211,52.324893 19.1361887,49.8838225 17.6265549,48.3732592 C16.1159915,46.8636254 13.6758507,46.8478225 12.1848085,48.3360761 L10.8703859,49.6504986 L0.134695775,38.9148085 L38.915738,0.133766197 L49.6514282,10.8694563 L48.3370056,12.1838789 C46.8478225,13.6749211 46.8636254,16.115062 48.3732592,17.6256254 C49.1066958,18.3599915 50.0790338,18.7662169 51.1108648,18.7708648 L51.1285268,18.7708648 C52.1464141,18.7708648 53.099231,18.3785831 53.8150056,17.6628085 L55.1294282,16.3474563 L65.8651183,27.0840761 L27.0840761,65.8651183 Z" id="Fill-3"></path>
                <path d="M44.1740789,29.0557099 L47.4610648,32.3426958 L45.4885014,34.3143296 L42.2024451,31.0273437 L44.1740789,29.0557099 Z M38.9154592,23.7970901 L42.2024451,27.0840761 L40.2298817,29.0557099 L36.9438254,25.7687239 L38.9154592,23.7970901 Z M33.6568394,18.5384704 L36.9438254,21.8254563 L34.9721915,23.7970901 L31.6852056,20.5110338 L33.6568394,18.5384704 Z" id="Fill-5"></path>
            </g>
        </g>
    </g>
</svg>