<?xml version="1.0" encoding="UTF-8"?>
<svg width="100px" height="100px" viewBox="0 0 100 100" version="1.1" xmlns="http://www.w3.org/2000/svg" xmlns:xlink="http://www.w3.org/1999/xlink">
    <!-- Generator: Sketch 42 (36781) - http://www.bohemiancoding.com/sketch -->
    <title>CRM</title>
    <desc>Created with Sketch.</desc>
    <defs></defs>
    <g id="Categories" stroke="none" stroke-width="1" fill="none" fill-rule="evenodd">
        <g id="CRM">
            <ellipse id="Background" fill="#FF4900" cx="50" cy="50" rx="50" ry="50"></ellipse>
            <path d="M52.6046512,41.1663685 L60.9159213,41.1663685 C61.3273703,44.3756708 64.1252236,46.9266547 67.4168157,46.9266547 C71.0375671,46.9266547 74,43.9642218 74,40.3434705 C74,36.7227191 71.0375671,33.7602862 67.4168157,33.7602862 C64.372093,33.7602862 61.8211091,35.8998211 61.0805009,38.6976744 L52.6046512,38.6976744 C51.7817531,32.6905188 46.5974955,28 40.3434705,28 C33.5134168,28 28,33.5134168 28,40.3434705 C28,46.8443649 33.1019678,52.1932021 39.5205725,52.6046512 L39.5205725,61.0805009 C36.7227191,61.8211091 34.5831843,64.372093 34.5831843,67.4168157 C34.5831843,71.0375671 37.5456172,74 41.1663685,74 C44.7871199,74 47.7495528,71.0375671 47.7495528,67.4168157 C47.7495528,64.0429338 45.1985689,61.3273703 41.9892665,60.9159213 L41.9892665,52.6046512 C44.293381,52.2754919 46.4329159,51.3703041 48.1610018,49.8890877 L57.9534884,59.6815742 C57.2128801,60.7513417 56.8014311,61.9856887 56.8014311,63.3846154 C56.8014311,67.0053667 59.763864,69.9677996 63.3846154,69.9677996 C67.0053667,69.9677996 69.9677996,67.0053667 69.9677996,63.3846154 C69.9677996,59.763864 67.0053667,56.8014311 63.3846154,56.8014311 C61.9856887,56.8014311 60.7513417,57.2128801 59.6815742,57.9534884 L49.8890877,48.1610018 C51.4525939,46.2683363 52.4400716,43.7996422 52.6046512,41.1663685 L52.6046512,41.1663685 Z M30.4686941,40.3434705 C30.4686941,34.9123435 34.9123435,30.4686941 40.3434705,30.4686941 C45.7745975,30.4686941 50.2182469,34.9123435 50.2182469,40.3434705 C50.2182469,45.7745975 45.7745975,50.2182469 40.3434705,50.2182469 C34.9123435,50.2182469 30.4686941,45.7745975 30.4686941,40.3434705 L30.4686941,40.3434705 Z" id="crm" stroke="#FFFFFF" stroke-width="1.31004367" fill="#FFFFFF"></path>
        </g>
    </g>
</svg>