<svg width="100" height="100" viewBox="0 0 100 100" xmlns="http://www.w3.org/2000/svg"><title>IntegrationBus-100</title><g fill="none" fill-rule="evenodd"><ellipse fill="#9A46D3" cx="50" cy="50" rx="50" ry="50"/><path d="M77.73 50.953V48.14H62.515V28.664a3.36 3.36 0 0 0-1.456-6.393 3.364 3.364 0 0 0-1.356 6.44v19.43H41.578V36.154a3.361 3.361 0 0 0-1.422-6.408 3.364 3.364 0 0 0-1.389 6.425V48.14h-16.06v2.813h7.264v7.32c-.084.04-.177.062-.255.107a3.373 3.373 0 0 0-1.519 1.811 3.379 3.379 0 0 0-.205 1.123c0 1.108.54 2.084 1.364 2.703.565.425 1.259.684 2.02.684a3.385 3.385 0 0 0 3.385-3.387c0-.397-.081-.768-.205-1.123-.303-.86-.958-1.53-1.774-1.915v-7.323h15.293v21.222c-.084.04-.177.062-.256.107a3.374 3.374 0 0 0-1.518 1.811 3.366 3.366 0 0 0-.205 1.123c0 1.108.54 2.084 1.363 2.703.565.425 1.26.684 2.021.684a3.385 3.385 0 0 0 3.385-3.387c0-.397-.082-.768-.205-1.123-.304-.86-.959-1.53-1.774-1.915V50.953h16.566V63.27c-.085.04-.177.061-.256.107a3.374 3.374 0 0 0-1.518 1.811 3.37 3.37 0 0 0-.205 1.123c0 1.108.54 2.084 1.363 2.703.565.425 1.26.684 2.021.684a3.386 3.386 0 0 0 3.385-3.387c0-.397-.082-.771-.205-1.123-.304-.86-.959-1.53-1.774-1.916V50.953h7.466z" stroke="#FFF" stroke-width="1.31" fill="#FEFEFE"/></g></svg>