<svg id="Layer_1" data-name="Layer 1" xmlns="http://www.w3.org/2000/svg" viewBox="0 0 100 100">
  <defs></defs>
  <title>erp</title>
  <circle id="Background" fill="#ff0000" cx="50" cy="50" r="50"/>
  <path fill="#fff" d="M67.7,20.5l-15,15-1.39,1.39-2.54,2.54-1.39,1.39L44.8,43.4l-1.39,1.39-2.54,2.54-1.39,1.39-2.54,2.54-1.39,1.39L33,55.2l-1.39,1.39L26.4,61.8l-5.9,5.9L32.3,79.5l5.9-5.9L79.5,32.3ZM35.42,70.82l-6.24-6.24,5.2-5.21,3.12,3.12,1.39-1.39L35.78,58l2.54-2.54,3.12,3.12,1.39-1.39-3.12-3.12,2.54-2.54,3.12,3.12,1.39-1.39-3.12-3.12,2.54-2.54,3.12,3.12L50.7,49.3l-3.12-3.12,2.54-2.54,3.12,3.12,1.39-1.39-3.12-3.12,2.54-2.54,3.12,3.12,1.39-1.39-3.12-3.12L67.7,26.06l6.24,6.24Z"/>
  <circle fill="#fff" cx="67.7" cy="32.3" r="1.97"/>
</svg>
