<?xml version="1.0" encoding="UTF-8"?>
<svg width="100px" height="100px" viewBox="0 0 100 100" version="1.1" xmlns="http://www.w3.org/2000/svg" xmlns:xlink="http://www.w3.org/1999/xlink">
    <!-- Generator: Sketch 42 (36781) - http://www.bohemiancoding.com/sketch -->
    <title>HR</title>
    <desc>Created with Sketch.</desc>
    <defs></defs>
    <g id="Categories" stroke="none" stroke-width="1" fill="none" fill-rule="evenodd">
        <g id="HR">
            <ellipse id="Background" fill="#0D517F" cx="50" cy="50" rx="50" ry="50"></ellipse>
            <g id="hr" transform="translate(27.000000, 22.000000)" fill="#FFFFFF">
                <path d="M10.2857143,36 C15.0205714,36 18.8571429,32.1634286 18.8571429,27.4285714 C18.8571429,22.6937143 15.0205714,18.8571429 10.2857143,18.8571429 C5.55085714,18.8571429 1.71428571,22.6937143 1.71428571,27.4285714 C1.71428571,32.1634286 5.55085714,36 10.2857143,36 Z M10.2857143,22.2857143 C13.1211429,22.2857143 15.4285714,24.5931429 15.4285714,27.4285714 C15.4285714,30.264 13.1211429,32.5714286 10.2857143,32.5714286 C7.45028571,32.5714286 5.14285714,30.264 5.14285714,27.4285714 C5.14285714,24.5931429 7.45028571,22.2857143 10.2857143,22.2857143 Z" id="Fill-1"></path>
                <path d="M29.1428571,27.4285714 C29.1428571,32.1634286 32.9794286,36 37.7142857,36 C42.4491429,36 46.2857143,32.1634286 46.2857143,27.4285714 C46.2857143,22.6937143 42.4491429,18.8571429 37.7142857,18.8571429 C32.9794286,18.8571429 29.1428571,22.6937143 29.1428571,27.4285714 Z M37.7142857,22.2857143 C40.5497143,22.2857143 42.8571429,24.5931429 42.8571429,27.4285714 C42.8571429,30.264 40.5497143,32.5714286 37.7142857,32.5714286 C34.8788571,32.5714286 32.5714286,30.264 32.5714286,27.4285714 C32.5714286,24.5931429 34.8788571,22.2857143 37.7142857,22.2857143 Z" id="Fill-3"></path>
                <path d="M32.5714286,8.57142857 C32.5714286,3.83657143 28.7348571,0 24,0 C19.2651429,0 15.4285714,3.83657143 15.4285714,8.57142857 C15.4285714,13.3062857 19.2651429,17.1428571 24,17.1428571 C28.7348571,17.1428571 32.5714286,13.3062857 32.5714286,8.57142857 Z M24,13.7142857 C21.1645714,13.7142857 18.8571429,11.4068571 18.8571429,8.57142857 C18.8571429,5.736 21.1645714,3.42857143 24,3.42857143 C26.8354286,3.42857143 29.1428571,5.736 29.1428571,8.57142857 C29.1428571,11.4068571 26.8354286,13.7142857 24,13.7142857 Z" id="Fill-4"></path>
                <path d="M17.1428571,39.4285714 L3.42857143,39.4285714 C1.53428571,39.4285714 0,40.9645714 0,42.8571429 L0,48 L20.5714286,48 L20.5714286,42.8571429 C20.5714286,40.9645714 19.0354286,39.4285714 17.1428571,39.4285714 Z" id="Fill-5"></path>
                <path d="M44.5714286,39.4285714 L30.8571429,39.4285714 C28.9645714,39.4285714 27.4285714,40.9645714 27.4285714,42.8571429 L27.4285714,48 L48,48 L48,42.8571429 C48,40.9645714 46.464,39.4285714 44.5714286,39.4285714 Z" id="Fill-6"></path>
            </g>
        </g>
    </g>
</svg>