<svg id="Layer_1" data-name="Layer 1" xmlns="http://www.w3.org/2000/svg" viewBox="0 0 112.75 112.75">
  <defs>
  </defs>
  <title>accounting</title>
  <circle id="Background" fill="#2CA01C" cx="56.38" cy="56.38" r="56.38"/>
  <path fill="#fff" d="M56.38,63.37a20,20,0,1,0-20-20A20,20,0,0,0,56.38,63.37Zm0-36a16,16,0,1,1-16,16A16,16,0,0,1,56.38,27.38Z"/>
  <path fill="#fff" d="M61.37,67.38h-21a8,8,0,0,0-8,8v8H55.6a19.77,19.77,0,0,1-.1-2A19.56,19.56,0,0,1,61.37,67.38Z"/>
  <path fill="#fff" d="M75.13,66.72A14.63,14.63,0,1,0,89.75,81.35,14.62,14.62,0,0,0,75.13,66.72Z"/>
  <path fill="#2CA01C" d="M72.15,84.31a2.91,2.91,0,0,0,2.48,3.06V82.53a5.08,5.08,0,0,0-.74-.21c-2.32-.6-4.63-1.53-4.63-4.61s2.59-4.77,5.37-5V71H76v1.78c2.75.3,5,1.71,5.21,4.93H77.91A2.12,2.12,0,0,0,76,75.46v4.1l1.18.3c4.54,1.25,4.61,3.82,4.61,5.37,0,1.32-1.18,4.54-5.79,4.84v2H74.62v-2c-3.45-.25-5.42-2.13-5.76-5.76Zm2.48-8.84a1.92,1.92,0,0,0-2.08,1.92c0,1,.6,1.5,2.08,1.85ZM76,87.36a2.47,2.47,0,0,0,2.5-2.27c0-1.2-.67-1.69-2.5-2.18Z"/>
</svg>
