<svg width="100" height="100" viewBox="0 0 100 100" xmlns="http://www.w3.org/2000/svg">
  <title>Salesforce-100</title>
  <g fill="none" fill-rule="evenodd">
    <ellipse fill="#00a1e0" cx="50" cy="50" rx="50" ry="50"/>
    <path d="M53.253 41.36h8.4c.417 3.243 3.245 5.822 6.572 5.822 3.66 0 6.654-2.995 6.654-6.654 0-3.66-2.995-6.654-6.654-6.654-3.078 0-5.656 2.162-6.405 4.99h-8.567c-.831-6.072-6.071-10.812-12.393-10.812a12.46 12.46 0 0 0-12.476 12.476c0 6.57 5.157 11.977 11.645 12.393v8.567c-2.828.748-4.99 3.326-4.99 6.404 0 3.66 2.993 6.654 6.653 6.654 3.66 0 6.654-2.994 6.654-6.654 0-3.41-2.578-6.155-5.822-6.57V52.92c2.329-.333 4.491-1.248 6.238-2.745l9.898 9.898a6.445 6.445 0 0 0-1.165 3.742c0 3.66 2.994 6.654 6.654 6.654 3.66 0 6.654-2.994 6.654-6.654 0-3.66-2.994-6.654-6.654-6.654a6.445 6.445 0 0 0-3.743 1.165l-9.897-9.898c1.58-1.913 2.578-4.408 2.744-7.07zm-22.373-.832c0-5.49 4.49-9.981 9.98-9.981s9.981 4.491 9.981 9.98c0 5.49-4.491 9.982-9.98 9.982-5.49 0-9.981-4.492-9.981-9.981z" stroke="#FFF" stroke-width="1.31" fill="#FFF"/>
  </g>
</svg>