<svg id="Layer_1" data-name="Layer 1" xmlns="http://www.w3.org/2000/svg" viewBox="0 0 100 100">
  <defs>
  </defs>
  <title>file_sharing</title>
  <circle id="Background" fill="#00a1e0" cx="50" cy="50" r="50"/>
  <path fill="#fff" d="M55,18.16H31.06V78H70.94V34.11ZM67,74H35V22.14H53v14H67Z"/>
  <path fill="#fff" d="M57.28,60.38a2.66,2.66,0,0,0-1.33.36l-9.23-7.3a2.47,2.47,0,0,0,0-1.64l8.64-7.6a2.66,2.66,0,0,0,1.21.3A2.73,2.73,0,1,0,54,42.7l-8.64,7.6a2.66,2.66,0,0,0-1.21-.3,2.69,2.69,0,0,0,0,5.38A2.66,2.66,0,0,0,45.48,55l9.23,7.3a2.66,2.66,0,0,0-.12.75,2.69,2.69,0,1,0,2.69-2.69Z"/>
</svg>