<svg width="100" height="100" viewBox="0 0 100 100" xmlns="http://www.w3.org/2000/svg"><title>SAP - 100</title><g fill="none" fill-rule="evenodd"><ellipse fill="#008ED6" cx="50" cy="50" rx="50" ry="50"/><g fill="#FFF"><path d="M37.286 58a8.57 8.57 0 0 0 8.571-8.571 8.57 8.57 0 0 0-8.571-8.572 8.57 8.57 0 0 0-8.572 8.572A8.57 8.57 0 0 0 37.286 58zm0-13.714a5.15 5.15 0 0 1 5.143 5.143 5.15 5.15 0 0 1-5.143 5.142 5.15 5.15 0 0 1-5.143-5.142 5.15 5.15 0 0 1 5.143-5.143zM56.143 49.429A8.57 8.57 0 0 0 64.714 58a8.57 8.57 0 0 0 8.572-8.571 8.57 8.57 0 0 0-8.572-8.572 8.57 8.57 0 0 0-8.571 8.572zm8.571-5.143a5.15 5.15 0 0 1 5.143 5.143 5.15 5.15 0 0 1-5.143 5.142 5.15 5.15 0 0 1-5.143-5.142 5.15 5.15 0 0 1 5.143-5.143zM59.571 30.571A8.57 8.57 0 0 0 51 22a8.57 8.57 0 0 0-8.571 8.571A8.57 8.57 0 0 0 51 39.143a8.57 8.57 0 0 0 8.571-8.572zM51 35.714a5.15 5.15 0 0 1-5.143-5.143A5.15 5.15 0 0 1 51 25.43a5.15 5.15 0 0 1 5.143 5.142A5.15 5.15 0 0 1 51 35.714zM44.143 61.429H30.429A3.429 3.429 0 0 0 27 64.857V70h20.571v-5.143a3.43 3.43 0 0 0-3.428-3.428zM71.571 61.429H57.857a3.43 3.43 0 0 0-3.428 3.428V70H75v-5.143a3.43 3.43 0 0 0-3.429-3.428z"/></g></g></svg>