<svg id="Layer_1" data-name="Layer 1" xmlns="http://www.w3.org/2000/svg" viewBox="0 0 100 100">
  <defs>
  </defs>
<title>field_service_management</title>
<circle fill="#FF6633" id="Background" cx="50" cy="50" r="50"/>
<polygon fill="none" points="51.07 49.66 48.91 47.41 42.86 41.13 42.86 62.23 57.14 65.08 57.14 43.36 53.23 47.41 51.07 49.66"/>
<path fill="none" d="M26.81,36.25V64.73l12.49-2.5V34.51c0-.24-.07-.49-.1-.73Z"/>
<path fill="none" d="M60.7,65.08l12.49-2.5V34.11L62.36,36.28a12.32,12.32,0,0,1-1.66,3.18Z"/>
<path fill="#fff" d="M63.05,32.5a12.58,12.58,0,0,1-.69,3.78l10.83-2.17V62.59L60.7,65.08V39.46a12.38,12.38,0,0,1-1.11,1.35l-2.46,2.55V65.08L42.86,62.23V41.13l-.31-.33a12.36,12.36,0,0,1-3.25-6.3V62.23l-12.49,2.5V36.25l12.38-2.47a12.77,12.77,0,0,1-.12-1.64,11.73,11.73,0,0,1,.18-2l-16,3.2V72.58L41.08,69l17.84,3.57L76.76,69V29.76Z"/>
<path fill="#fff" d="M57.43,25.91a9.14,9.14,0,0,0-12.73,0A8.73,8.73,0,0,0,42.35,30a8.6,8.6,0,0,0-.27,2.12,9.55,9.55,0,0,0,.79,3.81,9.38,9.38,0,0,0,1.85,2.78l6.36,6.61L57.14,39l.3-.31A9.45,9.45,0,0,0,60,33.11a9.72,9.72,0,0,0,0-1A8.67,8.67,0,0,0,57.43,25.91Zm-6.36,3.42a3,3,0,0,1,3,3v0a3,3,0,1,1-3-3Z"/>
</svg>
