<svg width="100" height="100" viewBox="0 0 100 100" xmlns="http://www.w3.org/2000/svg"><title>Slack-100</title><g fill="none" fill-rule="evenodd"><circle fill="#1EB379" cx="50" cy="50" r="50"/><g fill="#FFF"><path d="M69.856 28.06a21.76 21.76 0 0 0-15.438-6.396c-6.03 0-11.49 2.444-15.438 6.396a21.766 21.766 0 0 0-6.398 15.44c0 1.901.27 3.737.724 5.495-.238-.016-.479-.036-.724-.036a10.884 10.884 0 0 0-7.72 3.199 10.878 10.878 0 0 0-3.198 7.719c0 3.192 1.223 6.083 3.199 8.174l7.719 8.203v-5.459c3.013 0 5.743-1.223 7.719-3.199a10.9 10.9 0 0 0 2.937-5.364 21.701 21.701 0 0 0 11.18 3.104v10.918l15.438-16.406c3.952-4.184 6.398-9.965 6.398-16.348 0-6.03-2.446-11.488-6.398-15.44zm-2.651 29.293l-9.148 9.723v-5.38h-3.64a18.046 18.046 0 0 1-11.106-3.803 10.89 10.89 0 0 0-3.01-5.735 10.975 10.975 0 0 0-2.824-2.03A18.172 18.172 0 0 1 36.22 43.5c0-4.86 1.894-9.43 5.332-12.867a18.07 18.07 0 0 1 12.865-5.33c4.86 0 9.43 1.893 12.865 5.332A18.071 18.071 0 0 1 72.615 43.5c0 5.242-1.92 10.16-5.41 13.853z"/><path d="M56.348 41.57a2.73 2.73 0 1 1-3.86 3.86 2.73 2.73 0 0 1 3.86-3.86M65.446 41.57a2.73 2.73 0 1 1-3.86 3.86 2.73 2.73 0 0 1 3.86-3.86M47.25 41.57a2.73 2.73 0 1 1-3.86 3.86 2.73 2.73 0 0 1 3.86-3.86"/></g></g></svg>