<?xml version="1.0" encoding="UTF-8"?>
<svg width="100px" height="100px" viewBox="0 0 100 100" version="1.1" xmlns="http://www.w3.org/2000/svg" xmlns:xlink="http://www.w3.org/1999/xlink">
    <!-- Generator: Sketch 39.1 (31720) - http://www.bohemiancoding.com/sketch -->
    <title>SurveyMonkey</title>
    <desc>Created with Sketch.</desc>
    <defs></defs>
    <g id="Page-1" stroke="none" stroke-width="1" fill="none" fill-rule="evenodd">
        <g id="SurveyMonkey">
            <g id="Layer_2">
                <g id="Layer_1-2">
                    <g id="Categories">
                        <g id="Online-Forms">
                            <circle id="Background" fill="#B7C647" cx="50" cy="50" r="50"></circle>
                            <g id="online_forms" transform="translate(33.000000, 26.000000)" fill="#FFFFFF">
                                <path d="M21.43,0.51 L0.37,0.51 L0.37,47.05 L34.07,47.05 L34.07,13.2 L21.43,0.51 L21.43,0.51 Z M29.86,42.82 L4.58,42.82 L4.58,4.74 L19.32,4.74 L19.32,15.32 L29.86,15.32 L29.86,42.82 L29.86,42.82 Z" id="Fill-1"></path>
                                <polygon id="Fill-3" points="10.9 19.55 23.54 19.55 23.54 23.78 10.9 23.78"></polygon>
                                <polygon id="Fill-4" points="10.9 28.01 23.54 28.01 23.54 32.24 10.9 32.24"></polygon>
                                <path d="M21.43,0.51 L0.37,0.51 L0.37,47.05 L34.07,47.05 L34.07,13.2 L21.43,0.51 L21.43,0.51 Z M29.86,42.82 L4.58,42.82 L4.58,4.74 L19.32,4.74 L19.32,15.32 L29.86,15.32 L29.86,42.82 L29.86,42.82 Z" id="Fill-5"></path>
                                <polygon id="Fill-6" points="10.9 19.55 23.54 19.55 23.54 23.78 10.9 23.78"></polygon>
                                <polygon id="Fill-7" points="10.9 28.01 23.54 28.01 23.54 32.24 10.9 32.24"></polygon>
                            </g>
                        </g>
                    </g>
                </g>
            </g>
        </g>
    </g>
</svg>