<svg data-name="Layer 1" xmlns="http://www.w3.org/2000/svg" xmlns:xlink="http://www.w3.org/1999/xlink" viewBox="0 0 100 100">
  <defs>
    <linearGradient id="watson-svg-linear-gradient-1" x1="-87.67" y1="239.73" x2="-87.68" y2="239.78" gradientTransform="matrix(716.36 -12.5 10.42 596.79 60360.07 -144126.54)" gradientUnits="userSpaceOnUse">
      <stop offset="0" stop-color="#fff" stop-opacity="0"></stop>
      <stop offset=".45" stop-color="#fff" stop-opacity=".01"></stop>
      <stop offset=".66" stop-color="#fff" stop-opacity=".45"></stop>
      <stop offset=".71" stop-color="#fff"></stop>
      <stop offset="1" stop-color="#fff"></stop>
    </linearGradient>
    <linearGradient id="watson-svg-linear-gradient-2" x1="-87.64" y1="239.75" x2="-87.7" y2="239.76" gradientTransform="matrix(715.64 -12.49 10.41 596.19 60299.66 -143981.02)" gradientUnits="userSpaceOnUse">
      <stop offset="0" stop-color="#fff" stop-opacity="0"></stop>
      <stop offset=".26" stop-color="#fff" stop-opacity=".01"></stop>
      <stop offset=".29" stop-color="#fff" stop-opacity=".03"></stop>
      <stop offset=".74" stop-color="#fff" stop-opacity=".2"></stop>
      <stop offset=".89" stop-color="#fff" stop-opacity=".9"></stop>
      <stop offset="1" stop-color="#fff"></stop>
    </linearGradient>
    <linearGradient id="watson-svg-linear-gradient-3" x1="-87.67" y1="240.13" x2="-87.66" y2="240.17" gradientTransform="matrix(769.1 0 0 767.21 67471.18 -184193.08)" gradientUnits="userSpaceOnUse">
      <stop offset="0" stop-color="#fff" stop-opacity="0"></stop>
      <stop offset=".54" stop-color="#fff" stop-opacity=".3"></stop>
      <stop offset=".86" stop-color="#fff"></stop>
      <stop offset="1" stop-color="#fff"></stop>
    </linearGradient>
    <linearGradient id="watson-svg-linear-gradient-4" x1="-87.68" y1="240.15" x2="-87.64" y2="240.15" gradientTransform="matrix(769.1 0 0 767.21 67471.18 -184193.08)" gradientUnits="userSpaceOnUse">
      <stop offset="0" stop-color="#fff" stop-opacity=".05"></stop>
      <stop offset=".84" stop-color="#fff" stop-opacity=".85"></stop>
      <stop offset=".85" stop-color="#fff"></stop>
      <stop offset="1" stop-color="#fff"></stop>
    </linearGradient>
    <linearGradient id="watson-svg-linear-gradient-5" x1="-87.72" y1="239.61" x2="-87.7" y2="239.55" gradientTransform="matrix(702 0 0 539.99 61624.6 -129319.69)" gradientUnits="userSpaceOnUse">
      <stop offset="0" stop-color="#fff" stop-opacity="0"></stop>
      <stop offset=".33" stop-color="#fff" stop-opacity=".19"></stop>
      <stop offset=".75" stop-color="#fff" stop-opacity=".65"></stop>
      <stop offset=".83" stop-color="#fff"></stop>
      <stop offset="1" stop-color="#fff"></stop>
    </linearGradient>
    <linearGradient id="watson-svg-linear-gradient-6" x1="-87.72" y1="239.62" x2="-87.71" y2="239.56" gradientTransform="matrix(702 0 0 539.99 61624.6 -129319.69)" gradientUnits="userSpaceOnUse">
      <stop offset="0" stop-color="#fff" stop-opacity=".03"></stop>
      <stop offset=".52" stop-color="#fff" stop-opacity=".03"></stop>
      <stop offset=".82" stop-color="#fff" stop-opacity=".24"></stop>
      <stop offset=".87" stop-color="#fff" stop-opacity=".34"></stop>
      <stop offset=".98" stop-color="#fff"></stop>
      <stop offset="1" stop-color="#fff"></stop>
    </linearGradient>
    <linearGradient id="watson-svg-linear-gradient-7" x1="-87.92" y1="240.02" x2="-87.92" y2="239.98" gradientTransform="matrix(513.68 0 0 693.33 45212.02 -166350.74)" gradientUnits="userSpaceOnUse">
      <stop offset="0" stop-color="#fff" stop-opacity=".03"></stop>
      <stop offset=".39" stop-color="#fff" stop-opacity=".1"></stop>
      <stop offset=".57" stop-color="#fff" stop-opacity=".21"></stop>
      <stop offset=".7" stop-color="#fff" stop-opacity=".54"></stop>
      <stop offset=".7" stop-color="#fff"></stop>
      <stop offset="1" stop-color="#fff"></stop>
    </linearGradient>
    <linearGradient id="watson-svg-linear-gradient-8" x1="-87.91" y1="240.02" x2="-87.93" y2="240" gradientTransform="matrix(513.68 0 0 693.33 45212.02 -166350.74)" gradientUnits="userSpaceOnUse">
      <stop offset="0" stop-color="#fff" stop-opacity="0"></stop>
      <stop offset=".27" stop-color="#fff" stop-opacity=".17"></stop>
      <stop offset=".58" stop-color="#fff" stop-opacity=".98"></stop>
      <stop offset="1" stop-color="#fff"></stop>
    </linearGradient>
  </defs>
  <title>watson</title>
  <circle fill="#064366" cx="50" cy="50" r="50"></circle>
  <g>
    <g>
      <path
        fill="#fff"
        d="M25.08 41.92a1.28 1.28 0 0 1-.64-.17l-6.16-3.55a1.28 1.28 0 1 1 1.29-2.2l6.16 3.55a1.28 1.28 0 0 1-.64 2.39zm10.53-10.51a1.29 1.29 0 0 1-1.11-.64l-3.55-6.14a1.28 1.28 0 1 1 2.22-1.28l3.55 6.14a1.28 1.28 0 0 1-.47 1.75 1.27 1.27 0 0 1-.64.17zM50 27.56a1.28 1.28 0 0 1-1.28-1.28v-7.1a1.28 1.28 0 1 1 2.57 0v7.1A1.28 1.28 0 0 1 50 27.56zm14.39 3.84a1.28 1.28 0 0 1-1.11-1.92l3.55-6.14a1.28 1.28 0 1 1 2.22 1.28l-3.55 6.15a1.3 1.3 0 0 1-1.11.64zm10.53 10.52a1.28 1.28 0 0 1-.64-2.39L80.43 36a1.28 1.28 0 1 1 1.28 2.22l-6.16 3.55a1.3 1.3 0 0 1-.63.15z"></path>
      <path
        fill="url(#watson-svg-linear-gradient-1)"
        d="M43.51 66.67c9.93 5.49 20.91 4.72 24.49-1.72S66.42 48.8 56.49 43.31 35.58 38.59 32 45s1.58 16.15 11.51 21.63m13.55 6.18a30 30 0 0 1-14.79-3.93C31.1 62.73 25.49 51.46 29.75 43.79s16.82-8.9 28-2.72 16.76 17.44 12.5 25.11c-2.38 4.28-7.34 6.56-13.19 6.66"></path>
      <path
        fill="url(#watson-svg-linear-gradient-2)"
        d="M43.51 66.67c9.93 5.49 20.91 4.72 24.49-1.72S66.42 48.8 56.49 43.31 35.58 38.59 32 45s1.58 16.15 11.51 21.63M57 72.81a30 30 0 0 1-14.77-3.93c-11.15-6.17-16.76-17.43-12.5-25.1s16.8-8.89 28-2.72S74.47 58.49 70.2 66.15c-2.38 4.28-7.33 6.55-13.18 6.66"></path>
      <path fill="url(#watson-svg-linear-gradient-3)" d="M50 34.44a20.65 20.65 0 0 0-18.68 11.93 20.57 20.57 0 0 0 37.36 17.24 20.52 20.52 0 0 0-10-27.27 20.63 20.63 0 0 0-8.68-1.9m0 43.66a23.25 23.25 0 1 1 8-1.43 23.06 23.06 0 0 1-8 1.43"></path>
      <path fill="url(#watson-svg-linear-gradient-4)" d="M50 34.44a20.65 20.65 0 0 0-18.68 11.93 20.57 20.57 0 0 0 37.36 17.24 20.52 20.52 0 0 0-10-27.27 20.63 20.63 0 0 0-8.68-1.9m0 43.66a23.25 23.25 0 1 1 8-1.43 23.06 23.06 0 0 1-8 1.43"></path>
      <path
        fill="url(#watson-svg-linear-gradient-5)"
        d="M59.78 41.31a31.58 31.58 0 0 0-15.08 4.54C35 51.42 29.31 60.31 32.17 65.26c1.34 2.31 4.41 3.53 8.59 3.42a31.82 31.82 0 0 0 14.52-4.54C65 58.57 70.69 49.68 67.83 44.72c-1.33-2.29-4.29-3.41-8-3.41M40.25 71.24c-4.89 0-8.53-1.66-10.3-4.7-3.69-6.37 2.23-16.43 13.47-22.91s22.94-6.57 26.58-.2-2.19 16.44-13.43 22.92a34.47 34.47 0 0 1-15.73 4.88h-.59"></path>
      <path
        fill="url(#watson-svg-linear-gradient-6)"
        d="M61.59 41.31a31.58 31.58 0 0 0-15.08 4.54C36.85 51.42 31.11 60.31 34 65.26c1.34 2.31 4.41 3.53 8.59 3.42a31.82 31.82 0 0 0 14.51-4.54c9.66-5.57 15.4-14.46 12.53-19.41-1.33-2.29-4.29-3.41-8-3.41M40.25 71.24c-4.89 0-8.53-1.66-10.3-4.7-3.69-6.37 2.23-16.43 13.47-22.91s22.94-6.57 26.58-.2-2.19 16.44-13.43 22.92a34.47 34.47 0 0 1-15.73 4.88h-.59"></path>
      <path
        fill="url(#watson-svg-linear-gradient-7)"
        d="M58 36.63c-4.55 0-11.28 5.6-16 13.77-5.58 9.64-6.66 19.88-2.36 22.36s12.64-3.58 18.22-13.21a35.44 35.44 0 0 0 4.91-14.35c.31-4-.62-6.9-2.55-8a4.33 4.33 0 0 0-2.22-.57M41.77 75.86a6.75 6.75 0 0 1-3.42-.86c-5.69-3.28-5.07-14.64 1.42-25.86S55.81 31.69 61.51 35c2.87 1.65 4.23 5.35 3.83 10.43a37.92 37.92 0 0 1-5.25 15.42c-5.32 9.2-12.7 15-18.32 15"></path>
      <path
        data-name="Fill-12"
        fill="url(#watson-svg-linear-gradient-8)"
        d="M58 36.63c-4.55 0-11.28 5.6-16 13.77-5.58 9.64-6.66 19.88-2.36 22.36s12.64-3.58 18.22-13.21a35.44 35.44 0 0 0 4.91-14.35c.31-4-.62-6.9-2.55-8a4.33 4.33 0 0 0-2.22-.57M41.77 75.86a6.75 6.75 0 0 1-3.42-.86c-5.69-3.28-5.07-14.64 1.42-25.86S55.81 31.69 61.51 35c2.87 1.65 4.23 5.35 3.83 10.43a37.92 37.92 0 0 1-5.25 15.42c-5.32 9.2-12.7 15-18.32 15"></path>
    </g>
  </g>
</svg>
